<svg xmlns="http://www.w3.org/2000/svg" xmlns:xlink="http://www.w3.org/1999/xlink" width="278.429" height="51.989" viewBox="0 0 278.429 51.989">
  <defs>
    <clipPath id="clip-path">
      <rect id="Rectangle_4515" data-name="Rectangle 4515" width="277.999" height="30.185" fill="#fff"/>
    </clipPath>
  </defs>
  <g id="Group_4059" data-name="Group 4059" transform="translate(-104.001 -54.001)">
    <g id="Group_4058" data-name="Group 4058" transform="translate(-254.016 -352.896)">
      <g id="Group_4020" data-name="Group 4020" transform="translate(358.016 406.896)">
        <g id="ww_logo">
          <g id="Group_3987" data-name="Group 3987" transform="translate(0 0)">
            <g id="Mask_Group_3986" data-name="Mask Group 3986" clip-path="url(#clip-path)">
              <path id="Path_3762" data-name="Path 3762" d="M287.811,83.962c2.918,0,5-1.834,5-5.337,0-3.585-1.668-4.836-4.669-6.5-2.5-1.418-3.252-2.251-3.252-4.253,0-1.834.917-2.835,2.585-2.835s2.835.834,2.918,3.169h2.085c-.083-3.419-2-5-4.92-5a4.464,4.464,0,0,0-4.753,4.753c0,3,1.584,4.5,4.253,6,2.5,1.418,3.585,2.168,3.585,4.753,0,2.251-1.167,3.419-2.835,3.419-2.251,0-3.169-1.167-3.252-3.919h-2.168c0,3.752,2,5.753,5.42,5.753M269.217,65.285c3.5,0,4.669,1.668,4.669,4.836v7c0,3.252-1.251,4.836-4.669,4.836h-2.251V65.285Zm-4.5-1.751V83.712h4.669c4.669,0,6.754-2.418,6.754-6.587v-7c0-4.336-2.168-6.587-6.754-6.587ZM246.87,83.712h2V66.952l6.587,16.76h2.335V63.534h-2V79.126l-6.254-15.593h-2.752V83.712Zm-9.172,0h2.168V63.534H237.7Zm-20.345,0h2.085l3.252-14.675,3.085,14.675h2.085l3.5-20.179h-2l-2.585,15.843-3.335-15.843h-1.417l-3.335,15.843-2.5-15.843h-2.251Zm-23.848,0h2.251V74.957l4.419-11.423h-2.168l-3.419,9.005-3.419-9.005h-2.335l4.753,11.423v8.755Zm-16.593,0h8.672V81.961h-6.5V63.534h-2.168ZM162.236,72.706V65.285h2.418c2.168,0,3.335.834,3.335,3.169v.917c0,2.335-1.084,3.335-3.335,3.335Zm-2.251,11.007h2.168V74.457h2.168l3.836,9.256h2.418l-4.086-9.589c2.085-.5,3.5-1.834,3.5-4.836V68.37c0-3.419-2.085-4.92-5.5-4.92H159.9V83.712Zm-15.593,0h9.256V81.961h-7v-8h5.42V72.205h-5.42V65.368h6.587V63.617h-8.839Zm-12.341,0h2.168V65.285h4V63.534H127.966v1.751h4V83.712Zm-14.509.25c2.918,0,5-1.834,5-5.337,0-3.585-1.668-4.836-4.669-6.5-2.5-1.418-3.252-2.251-3.252-4.253,0-1.834.917-2.835,2.585-2.835s2.835.834,2.918,3.169h2.085c-.083-3.419-2-5-4.92-5a4.464,4.464,0,0,0-4.753,4.753c0,3,1.584,4.5,4.253,6,2.5,1.418,3.585,2.168,3.585,4.753,0,2.251-1.167,3.419-2.835,3.419-2.251,0-3.169-1.167-3.252-3.919h-2.085c-.083,3.752,1.918,5.753,5.337,5.753M97.2,83.712h9.256V81.961h-7v-8h5.42V72.205h-5.42V65.368h6.587V63.617H97.2Zm-20.179,0H79.1l3.252-14.675L85.44,83.712h2.085l3.5-20.179h-2L86.441,79.376,83.106,63.534H81.688L78.353,79.376l-2.5-15.843H73.6Z" transform="translate(-14.732 -54.028)" fill="#fff"/>
            </g>
          </g>
          <path id="Path_3763" data-name="Path 3763" d="M3,52.2,17.759,82.468l4.336-7.421-9.839-20.1L10.921,52.2Z" transform="translate(-3 -52.2)" fill="#fff"/>
          <path id="Path_3764" data-name="Path 3764" d="M33.3,52.2l9.005,18.511,4.336-7.421-4-8.338L41.221,52.2Z" transform="translate(-8.035 -52.2)" fill="#fff"/>
          <path id="Path_3765" data-name="Path 3765" d="M18,52.2,32.759,82.468,37.345,74.8,25.838,52.2Z" transform="translate(-5.493 -52.2)" fill="#fff"/>
          <path id="Path_3766" data-name="Path 3766" d="M47.8,52.2l3.585,7.338L55.721,52.2Z" transform="translate(-10.444 -52.2)" fill="#fff"/>
        </g>
      </g>
    </g>
    <path id="Path_3814" data-name="Path 3814" d="M3.18-4.14H1.79V-6.4H3.18c1,0,1.49.38,1.49,1.15C4.67-4.42,4.2-4.14,3.18-4.14ZM3.27-.8H1.79V-3.34H3.27c1.07,0,1.6.42,1.6,1.28C4.87-1.14,4.36-.8,3.27-.8ZM.83,0H3.41C5.06,0,5.89-.46,5.89-1.91A1.773,1.773,0,0,0,4.53-3.78,1.561,1.561,0,0,0,5.7-5.37a1.706,1.706,0,0,0-.99-1.62A3.454,3.454,0,0,0,3.28-7.2H.83Zm9.61-2.49v.5A1.214,1.214,0,0,1,9.1-.63a.876.876,0,0,1-.95-.85c0-.6.5-1.01,1.51-1.01ZM11.42,0a3.671,3.671,0,0,1-.05-.48v-3.1c0-1.06-.55-1.56-1.98-1.56-1.2,0-1.85.49-1.85,1.37v.08h.89c.02-.54.4-.86,1.02-.86.66,0,.99.28.99.82v.61H9.57c-1.51,0-2.37.7-2.37,1.73A1.5,1.5,0,0,0,8.88.12a1.594,1.594,0,0,0,1.61-.91,4.411,4.411,0,0,0,.1.79Zm5.73-1.69h-.9A1.037,1.037,0,0,1,15.17-.58c-.82,0-1.25-.69-1.25-2.04,0-1.2.51-1.87,1.27-1.87a1.013,1.013,0,0,1,1.02,1.05h.9v-.02a1.656,1.656,0,0,0-1.85-1.68c-1.45,0-2.3,1.01-2.3,2.74,0,1.61.8,2.52,2.23,2.52A1.768,1.768,0,0,0,17.15-1.69ZM19.71,0V-2.69L21.75,0h1.14L20.65-2.86l2.09-2.17H21.61l-1.9,2.06V-7.2h-.93V0Zm4.4,0h.93V-5.02h-.93Zm1-6.18V-7.2H24.03v1.02ZM27.94-4.2l-.03-.82h-.94c.03.36.04.71.04,1.03V0h.93V-3.26A1.194,1.194,0,0,1,29.27-4.4c.79,0,1.12.41,1.12,1.23V0h.92V-3.12a2.069,2.069,0,0,0-.24-1.28,1.916,1.916,0,0,0-1.56-.68A1.623,1.623,0,0,0,27.94-4.2Zm8.7,3.25v.94c0,.9-.4,1.35-1.31,1.35-.72,0-1.11-.35-1.12-1.03h-1c.01,1.18.63,1.68,2.03,1.68,1.6,0,2.33-.64,2.33-2.15V-4.13a8.8,8.8,0,0,1,.04-.89h-.87l-.03.62a1.723,1.723,0,0,0-1.61-.73,2.154,2.154,0,0,0-2.14,2.45c0,1.6.79,2.45,2.19,2.45A1.752,1.752,0,0,0,36.64-.95Zm.11-1.78c0,1.25-.6,1.92-1.4,1.92-.84,0-1.42-.65-1.42-1.77,0-1.26.61-1.92,1.4-1.92C36.16-4.5,36.75-3.85,36.75-2.73Zm6,2.73H47.3V-.86H43.71V-3.31h3.36v-.85H43.71V-6.35h3.51V-7.2H42.75Zm7.33-4.2-.03-.82h-.94c.03.36.04.71.04,1.03V0h.93V-3.26A1.194,1.194,0,0,1,51.41-4.4c.79,0,1.12.41,1.12,1.23V0h.92V-3.12a2.069,2.069,0,0,0-.24-1.28,1.916,1.916,0,0,0-1.56-.68A1.623,1.623,0,0,0,50.08-4.2Zm4.62-.82v.66h.85V-.95c0,.8.39,1.06,1.29,1.06a2.952,2.952,0,0,0,.73-.12v-.7a1.766,1.766,0,0,1-.46.07c-.53,0-.64-.14-.64-.64V-4.36h1.12v-.66H56.47V-6.36l-.92.31v1.03ZM58.91,0h.92V-2.82a1.2,1.2,0,0,1,1.29-1.36,2.667,2.667,0,0,1,.5.06v-.87a2.34,2.34,0,0,0-.38-.03,1.3,1.3,0,0,0-1.41.96l-.02-.96h-.93c.03.35.03.62.03.79V0Zm8.23-1.61h-.88c-.01.64-.47,1.04-1.21,1.04a1.316,1.316,0,0,1-1.4-1.49v-.3h3.56c.02-.21.02-.41.02-.61a2.018,2.018,0,0,0-2.19-2.17c-1.46,0-2.31.93-2.31,2.73,0,1.66.82,2.53,2.38,2.53A1.8,1.8,0,0,0,67.14-1.61ZM63.7-3.01a1.362,1.362,0,0,1,1.35-1.5,1.253,1.253,0,0,1,1.24,1.39v.11ZM68.89,1.9h.92V-.77a1.946,1.946,0,0,0,1.64.85c1.4,0,2.19-.91,2.19-2.61,0-1.65-.83-2.61-2.21-2.61a1.805,1.805,0,0,0-1.62.87l-.04-.75h-.94a8.141,8.141,0,0,1,.06.99Zm.92-4.51c0-1.22.61-1.92,1.45-1.92.81,0,1.43.71,1.43,2.07,0,1.23-.61,1.93-1.45,1.93C70.44-.53,69.81-1.25,69.81-2.61ZM75.28,0h.92V-2.82a1.2,1.2,0,0,1,1.29-1.36,2.667,2.667,0,0,1,.5.06v-.87a2.34,2.34,0,0,0-.38-.03,1.3,1.3,0,0,0-1.41.96l-.02-.96h-.93c.03.35.03.62.03.79V0Zm8.23-1.61h-.88c-.01.64-.47,1.04-1.21,1.04a1.316,1.316,0,0,1-1.4-1.49v-.3h3.56c.02-.21.02-.41.02-.61a2.018,2.018,0,0,0-2.19-2.17c-1.46,0-2.31.93-2.31,2.73,0,1.66.82,2.53,2.38,2.53A1.8,1.8,0,0,0,83.51-1.61Zm-3.44-1.4a1.362,1.362,0,0,1,1.35-1.5,1.253,1.253,0,0,1,1.24,1.39v.11ZM86.23-4.2l-.03-.82h-.94c.03.36.04.71.04,1.03V0h.93V-3.26A1.194,1.194,0,0,1,87.56-4.4c.79,0,1.12.41,1.12,1.23V0h.92V-3.12a2.069,2.069,0,0,0-.24-1.28,1.916,1.916,0,0,0-1.56-.68A1.623,1.623,0,0,0,86.23-4.2Zm9.43,2.59h-.88c-.01.64-.47,1.04-1.21,1.04a1.316,1.316,0,0,1-1.4-1.49v-.3h3.56c.02-.21.02-.41.02-.61a2.018,2.018,0,0,0-2.19-2.17c-1.46,0-2.31.93-2.31,2.73,0,1.66.82,2.53,2.38,2.53A1.8,1.8,0,0,0,95.66-1.61Zm-3.44-1.4a1.362,1.362,0,0,1,1.35-1.5,1.253,1.253,0,0,1,1.24,1.39v.11Zm8.56,2.22.03.79h.94c-.03-.31-.04-.64-.04-.99V-5.02h-.93v3.29A1.2,1.2,0,0,1,99.45-.58c-.79,0-1.12-.41-1.12-1.23V-5.02h-.92v3.15a2.069,2.069,0,0,0,.24,1.28A1.9,1.9,0,0,0,99.2.1,1.645,1.645,0,0,0,100.78-.79Zm2.88.79h.92V-2.82a1.2,1.2,0,0,1,1.29-1.36,2.667,2.667,0,0,1,.5.06v-.87a2.34,2.34,0,0,0-.38-.03,1.3,1.3,0,0,0-1.41.96l-.02-.96h-.93c.03.35.03.62.03.79V0Zm3.73-1.51v.12c0,1.05.64,1.51,2.03,1.51,1.26,0,2.01-.63,2.01-1.56a1.321,1.321,0,0,0-1.16-1.35l-1.14-.31c-.52-.14-.74-.32-.74-.65,0-.4.4-.73,1-.73s.96.29.96.78v.04h.92a.757.757,0,0,0,.01-.15c0-.81-.68-1.32-1.82-1.32-1.26,0-2.03.66-2.03,1.54,0,.67.44,1.1,1.33,1.31l1.07.25c.41.1.6.31.6.66,0,.46-.41.79-1.05.79a.934.934,0,0,1-1.06-.91v-.02Z" transform="translate(271 104)" fill="#fffffe"/>
  </g>
</svg>
